<?xml version="1.0" encoding="UTF-8"?>
<svg width="213px" height="48px" viewBox="0 0 213 48" version="1.1" xmlns="http://www.w3.org/2000/svg" xmlns:xlink="http://www.w3.org/1999/xlink">
    <title>Metasho_Logox2</title>
    <g id="Symbols" stroke="none" stroke-width="1" fill="none" fill-rule="evenodd">
        <g id="Header-Desktop" transform="translate(-149.000000, -16.000000)">
            <g id="Metasho_Logox2" transform="translate(149.571429, 16.000000)">
                <g id="Group-Copy" stroke="#FFFFFF">
                    <path d="M13.2142857,4.48660687 L25.719069,39.5 L0.709502455,39.5 L13.2142857,4.48660687 Z" id="Triangle-Copy-2" stroke-opacity="0.59" opacity="0.714611235"></path>
                    <path d="M22.4285714,1.49769142 L38.7210557,47.5 L6.13608714,47.5 L22.4285714,1.49769142 Z" id="Triangle-Copy-3" stroke-opacity="0.64"></path>
                    <ellipse id="Oval-Copy" stroke-opacity="0.28" cx="49.4285714" cy="24.5" rx="22.5" ry="12"></ellipse>
                </g>
                <g id="MetaShop-Real-Estate" transform="translate(42.228571, 19.160000)" fill="#FFFFFF" fill-rule="nonzero">
                    <polygon id="Path" points="13.616 0.512 13.616 11.84 10.08 11.84 10.08 6.192 8.336 11.84 5.296 11.84 3.552 6.192 3.552 11.84 0 11.84 0 0.512 4.352 0.512 6.848 7.312 9.28 0.512"></polygon>
                    <polygon id="Path" points="18.368 3.344 18.368 4.736 21.888 4.736 21.888 7.408 18.368 7.408 18.368 9.008 22.368 9.008 22.368 11.84 14.816 11.84 14.816 0.512 22.368 0.512 22.368 3.344"></polygon>
                    <polygon id="Path" points="32.208 0.512 32.208 3.328 29.2 3.328 29.2 11.84 25.648 11.84 25.648 3.328 22.672 3.328 22.672 0.512"></polygon>
                    <path d="M40.032,10.128 L36.256,10.128 L35.696,11.84 L31.968,11.84 L36.112,0.512 L40.208,0.512 L44.336,11.84 L40.592,11.84 L40.032,10.128 Z M39.168,7.456 L38.144,4.304 L37.12,7.456 L39.168,7.456 Z" id="Shape"></path>
                    <path d="M49.168,11.952 C47.8133333,11.952 46.696,11.6346667 45.816,11 C44.936,10.3653333 44.4586667,9.43466667 44.384,8.208 L48.16,8.208 C48.2133333,8.85866667 48.5013333,9.184 49.024,9.184 C49.216,9.184 49.3786667,9.13866667 49.512,9.048 C49.6453333,8.95733333 49.712,8.816 49.712,8.624 C49.712,8.35733333 49.568,8.14133333 49.28,7.976 C48.992,7.81066667 48.544,7.62133333 47.936,7.408 C47.2106667,7.152 46.6106667,6.90133333 46.136,6.656 C45.6613333,6.41066667 45.2533333,6.05333333 44.912,5.584 C44.5706667,5.11466667 44.4053333,4.512 44.416,3.776 C44.416,3.04 44.6053333,2.41333333 44.984,1.896 C45.3626667,1.37866667 45.88,0.986666667 46.536,0.72 C47.192,0.453333333 47.9306667,0.32 48.752,0.32 C50.1386667,0.32 51.24,0.64 52.056,1.28 C52.872,1.92 53.3013333,2.82133333 53.344,3.984 L49.52,3.984 C49.5093333,3.664 49.4293333,3.43466667 49.28,3.296 C49.1306667,3.15733333 48.9493333,3.088 48.736,3.088 C48.5866667,3.088 48.464,3.13866667 48.368,3.24 C48.272,3.34133333 48.224,3.48266667 48.224,3.664 C48.224,3.92 48.3653333,4.13066667 48.648,4.296 C48.9306667,4.46133333 49.3813333,4.66133333 50,4.896 C50.7146667,5.16266667 51.304,5.41866667 51.768,5.664 C52.232,5.90933333 52.6346667,6.25066667 52.976,6.688 C53.3173333,7.12533333 53.488,7.67466667 53.488,8.336 C53.488,9.02933333 53.3173333,9.65066667 52.976,10.2 C52.6346667,10.7493333 52.1386667,11.1786667 51.488,11.488 C50.8373333,11.7973333 50.064,11.952 49.168,11.952 Z" id="Path"></path>
                    <polygon id="Path" points="64.816 0.512 64.816 11.84 61.264 11.84 61.264 7.424 57.888 7.424 57.888 11.84 54.336 11.84 54.336 0.512 57.888 0.512 57.888 4.592 61.264 4.592 61.264 0.512"></polygon>
                    <path d="M71.536,11.952 C70.4693333,11.952 69.4906667,11.7013333 68.6,11.2 C67.7093333,10.6986667 67.0026667,10.0053333 66.48,9.12 C65.9573333,8.23466667 65.696,7.23733333 65.696,6.128 C65.696,5.01866667 65.9573333,4.02133333 66.48,3.136 C67.0026667,2.25066667 67.7093333,1.56 68.6,1.064 C69.4906667,0.568 70.4693333,0.32 71.536,0.32 C72.6026667,0.32 73.5786667,0.568 74.464,1.064 C75.3493333,1.56 76.0506667,2.25066667 76.568,3.136 C77.0853333,4.02133333 77.344,5.01866667 77.344,6.128 C77.344,7.23733333 77.0853333,8.23466667 76.568,9.12 C76.0506667,10.0053333 75.3466667,10.6986667 74.456,11.2 C73.5653333,11.7013333 72.592,11.952 71.536,11.952 Z M71.536,8.64 C72.24,8.64 72.784,8.41333333 73.168,7.96 C73.552,7.50666667 73.744,6.896 73.744,6.128 C73.744,5.34933333 73.552,4.73333333 73.168,4.28 C72.784,3.82666667 72.24,3.6 71.536,3.6 C70.8213333,3.6 70.272,3.82666667 69.888,4.28 C69.504,4.73333333 69.312,5.34933333 69.312,6.128 C69.312,6.896 69.504,7.50666667 69.888,7.96 C70.272,8.41333333 70.8213333,8.64 71.536,8.64 Z" id="Shape"></path>
                    <path d="M87.488,4.4 C87.488,5.11466667 87.3226667,5.76266667 86.992,6.344 C86.6613333,6.92533333 86.1733333,7.38666667 85.528,7.728 C84.8826667,8.06933333 84.1013333,8.24 83.184,8.24 L81.776,8.24 L81.776,11.84 L78.224,11.84 L78.224,0.512 L83.184,0.512 C84.5706667,0.512 85.6346667,0.864 86.376,1.568 C87.1173333,2.272 87.488,3.216 87.488,4.4 Z M82.784,5.44 C83.52,5.44 83.888,5.09333333 83.888,4.4 C83.888,3.70666667 83.52,3.36 82.784,3.36 L81.776,3.36 L81.776,5.44 L82.784,5.44 Z" id="Shape"></path>
                    <path d="M96.96,11.84 L94.192,7.168 L92.128,7.168 L92.128,11.84 L91.008,11.84 L91.008,0.656 L94.368,0.656 C95.616,0.656 96.5626667,0.954666667 97.208,1.552 C97.8533333,2.14933333 98.176,2.93333333 98.176,3.904 C98.176,4.71466667 97.944,5.40533333 97.48,5.976 C97.016,6.54666667 96.3306667,6.91733333 95.424,7.088 L98.304,11.84 L96.96,11.84 Z M92.128,6.256 L94.384,6.256 C95.2586667,6.256 95.9173333,6.04266667 96.36,5.616 C96.8026667,5.18933333 97.024,4.61866667 97.024,3.904 C97.024,3.168 96.8106667,2.6 96.384,2.2 C95.9573333,1.8 95.2853333,1.6 94.368,1.6 L92.128,1.6 L92.128,6.256 Z" id="Shape"></path>
                    <path d="M107.770667,7.024 C107.770667,7.408 107.76,7.70133333 107.738667,7.904 L100.490667,7.904 C100.522667,8.56533333 100.682667,9.13066667 100.970667,9.6 C101.258667,10.0693333 101.637333,10.424 102.106667,10.664 C102.576,10.904 103.088,11.024 103.642667,11.024 C104.368,11.024 104.978667,10.848 105.474667,10.496 C105.970667,10.144 106.298667,9.66933333 106.458667,9.072 L107.642667,9.072 C107.429333,9.92533333 106.973333,10.6213333 106.274667,11.16 C105.576,11.6986667 104.698667,11.968 103.642667,11.968 C102.821333,11.968 102.085333,11.784 101.434667,11.416 C100.784,11.048 100.274667,10.5253333 99.9066667,9.848 C99.5386667,9.17066667 99.3546667,8.37866667 99.3546667,7.472 C99.3546667,6.56533333 99.536,5.77066667 99.8986667,5.088 C100.261333,4.40533333 100.768,3.88266667 101.418667,3.52 C102.069333,3.15733333 102.810667,2.976 103.642667,2.976 C104.474667,2.976 105.202667,3.15733333 105.826667,3.52 C106.450667,3.88266667 106.930667,4.37066667 107.266667,4.984 C107.602667,5.59733333 107.770667,6.27733333 107.770667,7.024 Z M106.634667,6.992 C106.645333,6.34133333 106.514667,5.78666667 106.242667,5.328 C105.970667,4.86933333 105.6,4.52266667 105.130667,4.288 C104.661333,4.05333333 104.149333,3.936 103.594667,3.936 C102.762667,3.936 102.053333,4.20266667 101.466667,4.736 C100.88,5.26933333 100.554667,6.02133333 100.490667,6.992 L106.634667,6.992 Z" id="Shape"></path>
                    <path d="M108.773333,7.456 C108.773333,6.56 108.952,5.77333333 109.309333,5.096 C109.666667,4.41866667 110.162667,3.896 110.797333,3.528 C111.432,3.16 112.149333,2.976 112.949333,2.976 C113.781333,2.976 114.498667,3.168 115.101333,3.552 C115.704,3.936 116.138667,4.42666667 116.405333,5.024 L116.405333,3.104 L117.525333,3.104 L117.525333,11.84 L116.405333,11.84 L116.405333,9.904 C116.128,10.5013333 115.688,10.9946667 115.085333,11.384 C114.482667,11.7733333 113.765333,11.968 112.933333,11.968 C112.144,11.968 111.432,11.7813333 110.797333,11.408 C110.162667,11.0346667 109.666667,10.5066667 109.309333,9.824 C108.952,9.14133333 108.773333,8.352 108.773333,7.456 Z M116.405333,7.472 C116.405333,6.768 116.261333,6.14933333 115.973333,5.616 C115.685333,5.08266667 115.293333,4.672 114.797333,4.384 C114.301333,4.096 113.754667,3.952 113.157333,3.952 C112.538667,3.952 111.984,4.09066667 111.493333,4.368 C111.002667,4.64533333 110.616,5.048 110.333333,5.576 C110.050667,6.104 109.909333,6.73066667 109.909333,7.456 C109.909333,8.17066667 110.050667,8.79733333 110.333333,9.336 C110.616,9.87466667 111.002667,10.2853333 111.493333,10.568 C111.984,10.8506667 112.538667,10.992 113.157333,10.992 C113.754667,10.992 114.301333,10.848 114.797333,10.56 C115.293333,10.272 115.685333,9.86133333 115.973333,9.328 C116.261333,8.79466667 116.405333,8.176 116.405333,7.472 Z" id="Shape"></path>
                    <polygon id="Path" points="120.672 0 120.672 11.84 119.552 11.84 119.552 0"></polygon>
                    <polygon id="Path" points="127.653333 1.568 127.653333 5.744 131.893333 5.744 131.893333 6.672 127.653333 6.672 127.653333 10.912 132.373333 10.912 132.373333 11.84 126.533333 11.84 126.533333 0.64 132.373333 0.64 132.373333 1.568"></polygon>
                    <path d="M137.056,11.968 C136.053333,11.968 135.234667,11.736 134.6,11.272 C133.965333,10.808 133.610667,10.176 133.536,9.376 L134.688,9.376 C134.741333,9.86666667 134.973333,10.264 135.384,10.568 C135.794667,10.872 136.346667,11.024 137.04,11.024 C137.648,11.024 138.125333,10.88 138.472,10.592 C138.818667,10.304 138.992,9.94666667 138.992,9.52 C138.992,9.22133333 138.896,8.976 138.704,8.784 C138.512,8.592 138.269333,8.44 137.976,8.328 C137.682667,8.216 137.285333,8.096 136.784,7.968 C136.133333,7.79733333 135.605333,7.62666667 135.2,7.456 C134.794667,7.28533333 134.450667,7.032 134.168,6.696 C133.885333,6.36 133.744,5.90933333 133.744,5.344 C133.744,4.91733333 133.872,4.52266667 134.128,4.16 C134.384,3.79733333 134.746667,3.50933333 135.216,3.296 C135.685333,3.08266667 136.218667,2.976 136.816,2.976 C137.754667,2.976 138.512,3.21333333 139.088,3.688 C139.664,4.16266667 139.973333,4.816 140.016,5.648 L138.896,5.648 C138.864,5.136 138.664,4.72266667 138.296,4.408 C137.928,4.09333333 137.424,3.936 136.784,3.936 C136.218667,3.936 135.76,4.06933333 135.408,4.336 C135.056,4.60266667 134.88,4.93333333 134.88,5.328 C134.88,5.66933333 134.984,5.94933333 135.192,6.168 C135.4,6.38666667 135.658667,6.55733333 135.968,6.68 C136.277333,6.80266667 136.693333,6.93866667 137.216,7.088 C137.845333,7.25866667 138.346667,7.424 138.72,7.584 C139.093333,7.744 139.413333,7.97866667 139.68,8.288 C139.946667,8.59733333 140.085333,9.008 140.096,9.52 C140.096,9.98933333 139.968,10.408 139.712,10.776 C139.456,11.144 139.098667,11.4346667 138.64,11.648 C138.181333,11.8613333 137.653333,11.968 137.056,11.968 Z" id="Path"></path>
                    <path d="M143.130667,4.048 L143.130667,9.472 C143.130667,10.0053333 143.232,10.3733333 143.434667,10.576 C143.637333,10.7786667 143.994667,10.88 144.506667,10.88 L145.530667,10.88 L145.530667,11.84 L144.330667,11.84 C143.541333,11.84 142.954667,11.656 142.570667,11.288 C142.186667,10.92 141.994667,10.3146667 141.994667,9.472 L141.994667,4.048 L140.778667,4.048 L140.778667,3.104 L141.994667,3.104 L141.994667,0.912 L143.130667,0.912 L143.130667,3.104 L145.530667,3.104 L145.530667,4.048 L143.130667,4.048 Z" id="Path"></path>
                    <path d="M146.325333,7.456 C146.325333,6.56 146.504,5.77333333 146.861333,5.096 C147.218667,4.41866667 147.714667,3.896 148.349333,3.528 C148.984,3.16 149.701333,2.976 150.501333,2.976 C151.333333,2.976 152.050667,3.168 152.653333,3.552 C153.256,3.936 153.690667,4.42666667 153.957333,5.024 L153.957333,3.104 L155.077333,3.104 L155.077333,11.84 L153.957333,11.84 L153.957333,9.904 C153.68,10.5013333 153.24,10.9946667 152.637333,11.384 C152.034667,11.7733333 151.317333,11.968 150.485333,11.968 C149.696,11.968 148.984,11.7813333 148.349333,11.408 C147.714667,11.0346667 147.218667,10.5066667 146.861333,9.824 C146.504,9.14133333 146.325333,8.352 146.325333,7.456 Z M153.957333,7.472 C153.957333,6.768 153.813333,6.14933333 153.525333,5.616 C153.237333,5.08266667 152.845333,4.672 152.349333,4.384 C151.853333,4.096 151.306667,3.952 150.709333,3.952 C150.090667,3.952 149.536,4.09066667 149.045333,4.368 C148.554667,4.64533333 148.168,5.048 147.885333,5.576 C147.602667,6.104 147.461333,6.73066667 147.461333,7.456 C147.461333,8.17066667 147.602667,8.79733333 147.885333,9.336 C148.168,9.87466667 148.554667,10.2853333 149.045333,10.568 C149.536,10.8506667 150.090667,10.992 150.709333,10.992 C151.306667,10.992 151.853333,10.848 152.349333,10.56 C152.845333,10.272 153.237333,9.86133333 153.525333,9.328 C153.813333,8.79466667 153.957333,8.176 153.957333,7.472 Z" id="Shape"></path>
                    <path d="M158.56,4.048 L158.56,9.472 C158.56,10.0053333 158.661333,10.3733333 158.864,10.576 C159.066667,10.7786667 159.424,10.88 159.936,10.88 L160.96,10.88 L160.96,11.84 L159.76,11.84 C158.970667,11.84 158.384,11.656 158,11.288 C157.616,10.92 157.424,10.3146667 157.424,9.472 L157.424,4.048 L156.208,4.048 L156.208,3.104 L157.424,3.104 L157.424,0.912 L158.56,0.912 L158.56,3.104 L160.96,3.104 L160.96,4.048 L158.56,4.048 Z" id="Path"></path>
                    <path d="M170.170667,7.024 C170.170667,7.408 170.16,7.70133333 170.138667,7.904 L162.890667,7.904 C162.922667,8.56533333 163.082667,9.13066667 163.370667,9.6 C163.658667,10.0693333 164.037333,10.424 164.506667,10.664 C164.976,10.904 165.488,11.024 166.042667,11.024 C166.768,11.024 167.378667,10.848 167.874667,10.496 C168.370667,10.144 168.698667,9.66933333 168.858667,9.072 L170.042667,9.072 C169.829333,9.92533333 169.373333,10.6213333 168.674667,11.16 C167.976,11.6986667 167.098667,11.968 166.042667,11.968 C165.221333,11.968 164.485333,11.784 163.834667,11.416 C163.184,11.048 162.674667,10.5253333 162.306667,9.848 C161.938667,9.17066667 161.754667,8.37866667 161.754667,7.472 C161.754667,6.56533333 161.936,5.77066667 162.298667,5.088 C162.661333,4.40533333 163.168,3.88266667 163.818667,3.52 C164.469333,3.15733333 165.210667,2.976 166.042667,2.976 C166.874667,2.976 167.602667,3.15733333 168.226667,3.52 C168.850667,3.88266667 169.330667,4.37066667 169.666667,4.984 C170.002667,5.59733333 170.170667,6.27733333 170.170667,7.024 Z M169.034667,6.992 C169.045333,6.34133333 168.914667,5.78666667 168.642667,5.328 C168.370667,4.86933333 168,4.52266667 167.530667,4.288 C167.061333,4.05333333 166.549333,3.936 165.994667,3.936 C165.162667,3.936 164.453333,4.20266667 163.866667,4.736 C163.28,5.26933333 162.954667,6.02133333 162.890667,6.992 L169.034667,6.992 Z" id="Shape"></path>
                </g>
            </g>
        </g>
    </g>
</svg>