<?xml version="1.0" encoding="UTF-8"?>
<svg width="18px" height="14px" viewBox="0 0 18 14" version="1.1" xmlns="http://www.w3.org/2000/svg" xmlns:xlink="http://www.w3.org/1999/xlink">
    <title>DB65A6A4-6D91-48B6-A587-AE2244A86B54</title>
    <g id="Web-app" stroke="none" stroke-width="1" fill="none" fill-rule="evenodd">
        <g id="Metaverse-Real-Estate" transform="translate(-252.000000, -3769.000000)" fill="#FFFFFF" fill-rule="nonzero">
            <g id="Footer-Desktop" transform="translate(0.000000, 3549.000000)">
                <g id="Discord-Logo-White" transform="translate(252.000000, 220.000000)">
                    <path d="M15.2377602,1.16052361 C14.090501,0.623367696 12.8602391,0.227614894 11.5739236,0.000950826355 C11.5504983,-0.00342371927 11.5270983,0.00750850565 11.5150307,0.0293734729 C11.3568082,0.316528633 11.181549,0.69114599 11.0588194,0.985593526 C9.67530397,0.774239075 8.2988871,0.774239075 6.94374065,0.985593526 C6.82098572,0.684600987 6.63936319,0.316528633 6.4804308,0.0293734729 C6.4683632,0.00823802775 6.4449632,-0.00269419717 6.42153785,0.000950826355 C5.13593224,0.226890546 3.9056703,0.622643348 2.75770131,1.16052361 C2.74776329,1.16489557 2.73924498,1.17219079 2.73359146,1.18165906 C0.400043625,4.73908819 -0.23921267,8.20907815 0.0743850971,11.636047 C0.0758040548,11.6528105 0.0850274067,11.6688496 0.0977985332,11.6790422 C1.63740669,12.8327737 3.12878018,13.5331925 4.59245902,13.9974479 C4.61588437,14.0047432 4.64070409,13.9959992 4.65561113,13.9763125 C5.00184492,13.4938449 5.31048154,12.9851196 5.57510688,12.4501367 C5.59072378,12.4188087 5.57581674,12.3816341 5.54389843,12.3692426 C5.05434915,12.1797479 4.58819986,11.9487067 4.13979706,11.6863375 C4.10432945,11.665202 4.10149001,11.613437 4.13411818,11.5886539 C4.22847874,11.5165037 4.32286466,11.4414302 4.41296606,11.3656323 C4.42926747,11.3517921 4.45198296,11.3488688 4.47114916,11.3576127 C7.41696318,12.7300197 10.6061575,12.7300197 13.5172137,11.3576127 C13.5363799,11.3481445 13.5590954,11.3510677 13.5761067,11.364908 C13.6662334,11.4407058 13.760594,11.5165037 13.8556644,11.5886539 C13.8882926,11.613437 13.886163,11.665202 13.8506954,11.6863375 C13.4022926,11.953803 12.9361433,12.1797479 12.4458842,12.3685182 C12.4139659,12.3809098 12.3997687,12.4188087 12.4153856,12.4501367 C12.6856898,12.9843694 12.9943264,13.4930946 13.3341715,13.9755881 C13.3483687,13.9959992 13.3738982,14.0047432 13.3973236,13.9974479 C14.868101,13.5331925 16.3594644,12.8327737 17.8990728,11.6790422 C17.9125601,11.6688496 17.9210784,11.6535348 17.9224981,11.6367713 C18.2978108,7.67481963 17.2938672,4.2332862 15.2611602,1.1823834 C15.2561912,1.17219079 15.2476982,1.16489557 15.2377602,1.16052361 Z M6.01501673,9.54938098 C5.12812379,9.54938098 4.39734916,8.71852775 4.39734916,7.69815399 C4.39734916,6.67778023 5.11395196,5.84692699 6.01501673,5.84692699 C6.92315474,5.84692699 7.64685613,6.68507545 7.63265894,7.69815399 C7.63265894,8.71852775 6.91605614,9.54938098 6.01501673,9.54938098 Z M11.9960617,9.54938098 C11.1091941,9.54938098 10.3784194,8.71852775 10.3784194,7.69815399 C10.3784194,6.67778023 11.0949969,5.84692699 11.9960617,5.84692699 C12.904225,5.84692699 13.6279011,6.68507545 13.6137292,7.69815399 C13.6137292,8.71852775 12.904225,9.54938098 11.9960617,9.54938098 Z" id="Shape"></path>
                </g>
            </g>
        </g>
    </g>
</svg>