<?xml version="1.0" encoding="UTF-8"?>
<svg width="16px" height="15px" viewBox="0 0 16 15" version="1.1" xmlns="http://www.w3.org/2000/svg" xmlns:xlink="http://www.w3.org/1999/xlink">
    <title>4CDE4769-AE03-41C6-A970-C68D24CEF037</title>
    <g id="Web-app" stroke="none" stroke-width="1" fill="none" fill-rule="evenodd">
        <g id="Metaverse-Real-Estate" transform="translate(-237.000000, -1547.000000)" fill="#A4A4A4" fill-rule="nonzero">
            <g id="Card-model-A-Copy-4" transform="translate(221.000000, 1287.000000)">
                <g id="heart-regular" transform="translate(16.000000, 260.000000)">
                    <path d="M14.3249931,1.08191251 C12.5187444,-0.544876935 9.72812145,-0.300523788 8,1.58400802 C6.271874,-0.300523788 3.48125107,-0.548224238 1.6750024,1.08191251 C-0.674995862,3.20075556 -0.331246116,6.65517265 1.34375265,8.48614761 L6.82499859,14.4677788 C7.13749836,14.8092037 7.55624805,15 8,15 C8.4468724,15 8.86249709,14.812551 9.17499686,14.4711261 L14.6562428,8.48949491 C16.3281166,6.65851996 16.6781163,3.20410286 14.3249931,1.08191251 Z M13.5874936,7.35810636 L8.10624765,13.3397375 C8.0312477,13.4200728 7.96874775,13.4200728 7.8937478,13.3397375 L2.41250186,7.35810636 C1.2718777,6.1129095 1.04062787,3.75640792 2.64062669,2.31372016 C3.85625079,1.21915195 5.7312494,1.38316982 6.90624853,2.66518701 L7.99999773,3.86017432 L9.09374692,2.66518701 C10.274996,1.37647521 12.1499947,1.21915195 13.3593688,2.31037286 C14.9562426,3.75306062 14.7187428,6.12295141 13.5874936,7.35810636 L13.5874936,7.35810636 Z" id="Shape"></path>
                </g>
            </g>
        </g>
    </g>
</svg>