<?xml version="1.0" encoding="UTF-8"?>
<svg width="18px" height="14px" viewBox="0 0 18 14" version="1.1" xmlns="http://www.w3.org/2000/svg" xmlns:xlink="http://www.w3.org/1999/xlink">
    <title>2B0567E6-B928-4D56-A742-B326E8F5DE57</title>
    <g id="Web-app" stroke="none" stroke-width="1" fill="none" fill-rule="evenodd">
        <g id="Metaverse-Real-Estate" transform="translate(-286.000000, -3769.000000)" fill="#FFFFFF" fill-rule="nonzero">
            <g id="Footer-Desktop" transform="translate(0.000000, 3549.000000)">
                <g id="Logo-white" transform="translate(286.000000, 220.000000)">
                    <path d="M16.1572212,3.48526371 C16.1681901,3.63715412 16.1681901,3.78904454 16.1681901,3.94233486 C16.1681901,8.61314003 12.4533821,14 5.6606947,14 L5.6606947,13.9972002 C3.65411335,14 1.68921389,13.4498347 0,12.4125002 C0.291773309,12.4460981 0.585009141,12.462897 0.878976234,12.463597 C2.54186472,12.4649969 4.15722121,11.9309306 5.4654479,10.9474927 C3.88519196,10.9187945 2.49945155,9.93255674 2.01535649,8.49274763 C2.56892139,8.59494118 3.1393053,8.5739425 3.68263254,8.43185147 C1.95978062,8.0986725 0.720292505,6.64976396 0.720292505,4.96707018 C0.720292505,4.95167115 0.720292505,4.93697208 0.720292505,4.922273 C1.23363803,5.19595573 1.80840951,5.34784614 2.39634369,5.36464508 C0.773674589,4.3266106 0.273491773,2.26034103 1.25338208,0.644843003 C3.12833638,2.85320361 5.89469835,4.19571887 8.86435101,4.3378099 C8.56672761,3.11008739 8.97330896,1.8235686 9.93272395,0.960523077 C11.4201097,-0.377792446 13.759415,-0.309196776 15.1575868,1.1138134 C15.9846435,0.957723254 16.7773309,0.66724159 17.5027422,0.255667569 C17.2270567,1.07391592 16.6500914,1.76897205 15.8793419,2.21064417 C16.6113346,2.12804938 17.3265082,1.94046122 18,1.65417929 C17.5042048,2.3653344 16.8797075,2.9847953 16.1572212,3.48526371 Z" id="white_background"></path>
                </g>
            </g>
        </g>
    </g>
</svg>